<?xml version="1.0" encoding="utf-8"?>
<!-- Generator: Adobe Illustrator 19.0.0, SVG Export Plug-In . SVG Version: 6.00 Build 0)  -->
<svg version="1.1" id="layer" xmlns="http://www.w3.org/2000/svg" xmlns:xlink="http://www.w3.org/1999/xlink" x="0px" y="0px"
	 viewBox="-153 -46 652 652" style="enable-background:new -153 -46 652 652;" xml:space="preserve">
<g>
	<path d="M59.8,304.5c-6.9-15.5-22.4-17.7-32.1-24.2c-4.6-3.1-6.5-9.3-7.3-14.4c-4.6,0.5-12.2,0.6-15.8-8.9
		c-2.9-7.4-1.7-19.7-11.2-30.1c-8.7-9.4-19.4-12.6-29.2-11.9c12,8.2,7.3,20.5-1.4,20.5c-12.2,0-15.6-14.9-33.4-14.9
		c-4.1,0-7.7,1.3-9.9,2.8c10,1.3,12.4,9.6,15.5,17.1c2.5,6,6.9,9.5,13.4,11.3c-1.2,0.7-4,1.5-7.6,1.5c-7.9,0-13.3-4.2-19-10.1
		c-5-5.2-10.5-10.1-19.8-10.1c-4.6,0-8.1,1.5-9.3,2.3c5.1,0.8,12.6,3.9,12.6,9.4c0,4.7-5.1,6.5-9.3,2c-4.6-5-11.2-8.8-18.6-8.8
		c-3.7,0-7.4,1.2-8.9,2.8c8.8,1,14.1,6.8,19.6,19.7c3.1,7.3,7.5,14.2,18.6,14.3c5,0.1,12.2-2.4,16.4,1.7c4,3.9,2.6,9,4.5,13.1
		c2.3,5.2,7,7.9,16.3,8.4c-7.7,6.6-26.1,2.6-32.4-4.1c0.8,16.8,13.8,31.8,39.6,24.8c4.5-1.2,7.7-0.5,9.4,4.1c2.4,6.3,8,7.4,13.3,6.7
		c12.1-1.5,19.3,1,26.3,9.4c1.5-14.1-8.3-22.3-14.5-26.2c-5.9-3.8-6.5-7.7-6.6-10.7c4.3,5,9.8,7.1,15.6,7.9c10,1.4,17.2,4.3,21,9.7
		c1.1-15.4-14.8-18.9-16.8-25.4c5,3.3,8.7,4.5,13.9,4.1c7-0.5,15.4-6.1,21.7,4.8C42.4,298,52.8,299.8,59.8,304.5z M-26.9,283.6
		h-17.9v-18.3h17.9V283.6z M-44.8,201.5h17.9v-18.3h-17.9C-44.8,183.2-44.8,201.5-44.8,201.5z M-26.9,347.5h-17.9v18.3h17.9V347.5z
		 M101.2,290.4c5.8,0,9.7-3.3,9.7-10.3v-15.3h-5.2v15.6c0,3.5-1.7,5.2-4.4,5.2c-2.7,0-4.4-1.8-4.4-5.3v-15.5h-5.2v15.4
		C91.7,287,95.4,290.4,101.2,290.4L101.2,290.4z M114.2,290h5.1v-15.2l10,15.2h4.5v-25.2h-5.1v14.7l-9.7-14.7h-4.8V290L114.2,290z
		 M137.6,290h5.2v-25.2h-5.2V290L137.6,290z M152.9,290.2h4.8l8.5-25.4h-5.5l-5.3,17.4l-5.3-17.4h-5.7L152.9,290.2L152.9,290.2z
		 M167.6,290H184v-4.7h-11.2v-5.6h9.7V275h-9.7v-5.4h11.1v-4.7h-16.3C167.6,264.8,167.6,290,167.6,290z M186.9,290h5.2v-8.3h3.3
		l4.7,8.3h6l-5.4-9.4c2.8-1.2,4.7-3.6,4.7-7.5V273c0-2.5-0.8-4.5-2.1-5.8c-1.6-1.6-3.9-2.4-6.9-2.4h-9.5V290L186.9,290z
		 M192.2,277.1v-7.6h3.8c2.7,0,4.2,1.3,4.2,3.8v0c0,2.3-1.4,3.8-4.1,3.8L192.2,277.1L192.2,277.1L192.2,277.1z M215.7,290.3
		c4.9,0,8.5-2.9,8.5-7.6v-0.1c0-3.9-2.4-5.8-6.8-7.5c-3.9-1.6-4.8-2.3-4.8-3.7v0c0-1.3,1.1-2.2,2.9-2.2c1.9,0,3.8,1,5.4,2.3l2.9-4
		c-2.3-2.1-5.2-3.1-8.1-3.1c-4.9,0-8.3,3-8.3,7.4v0.1c0,4.3,2.8,6,7.2,7.8c3.6,1.4,4.3,2.2,4.3,3.4v0c0,1.5-1.2,2.5-3.2,2.5
		c-2.5,0-4.6-1.4-6.3-2.8l-3.1,3.8C209.2,289.2,212.5,290.3,215.7,290.3L215.7,290.3z M226.2,290h5.2v-25.2h-5.2V290z M239.6,290
		h5.2v-20.4h6.4v-4.8h-17.9v4.8h6.3L239.6,290L239.6,290z M259.7,290h5.2v-10l8.2-15.2h-5.8l-5,9.9l-5-9.9h-5.9l8.2,15.3L259.7,290
		L259.7,290z M291.1,290.4c6.7,0,11.4-5.3,11.4-12.9v-0.4c0-7.5-4.7-12.8-11.4-12.8c-6.7,0-11.4,5.3-11.4,12.9v0.4
		C279.7,285.2,284.3,290.4,291.1,290.4z M291.1,285.6c-3.5,0-6.1-3.1-6.1-8.1v-0.2c0-5,2.5-8.1,6-8.1c3.5,0,6,3.1,6,8.1v0.2
		C297.1,282.5,294.6,285.6,291.1,285.6L291.1,285.6z M304.6,290h5.2v-10h9.7v-4.8h-9.7v-5.7h11v-4.8h-16.3V290z M331,290h5.2v-10.3
		h8.3V290h5.2v-25.2h-5.2v10.1h-8.3v-10.1H331V290L331,290z M353.5,290h16.4v-4.7h-11.2v-5.6h9.7V275h-9.7v-5.4h11.1v-4.7h-16.3
		L353.5,290L353.5,290L353.5,290z M372.8,290h15.4v-4.8h-10.2v-20.4h-5.2V290L372.8,290z M398.4,290.3c4.9,0,8.5-2.9,8.5-7.6v-0.1
		c0-3.9-2.4-5.8-6.8-7.5c-3.9-1.6-4.8-2.3-4.8-3.7v0c0-1.3,1.1-2.2,2.9-2.2c1.9,0,3.8,1,5.4,2.3l2.9-4c-2.3-2.1-5.2-3.1-8.2-3.1
		c-4.9,0-8.3,3-8.3,7.4v0.1c0,4.3,2.8,6,7.2,7.8c3.6,1.4,4.3,2.2,4.3,3.4v0c0,1.5-1.2,2.5-3.3,2.5c-2.5,0-4.6-1.4-6.3-2.8l-3.1,3.8
		C391.8,289.2,395.2,290.3,398.4,290.3z M409.4,290h5.2v-25.2h-5.2V290L409.4,290z M418.4,290h5.1v-15.2l10,15.2h4.5v-25.2h-5.1
		v14.7l-9.7-14.7h-4.8L418.4,290L418.4,290z M441.8,290h5.2v-7.4l2.3-3l6.3,10.4h6.1l-8.8-14.5l8.5-10.7h-6.2l-8.3,10.9v-10.9h-5.2
		L441.8,290L441.8,290L441.8,290z M463.3,290h5.2v-25.2h-5.2L463.3,290L463.3,290z"/>
</g>
</svg>
