<svg id="Capa_1" data-name="Capa 1" xmlns="http://www.w3.org/2000/svg" viewBox="0 0 600 182.6"><defs><style>.cls-1{fill:#070308;}</style></defs><title>university-of-helsinki</title><path class="cls-1" d="M191.8,122.13c-6.9-15.5-22.4-17.7-32.1-24.2-4.6-3.1-6.5-9.3-7.3-14.4-4.6.5-12.2.6-15.8-8.9-2.9-7.4-1.7-19.7-11.2-30.1-8.7-9.4-19.4-12.6-29.2-11.9,12,8.2,7.3,20.5-1.4,20.5-12.2,0-15.6-14.9-33.4-14.9A18.18,18.18,0,0,0,51.5,41c10,1.3,12.4,9.6,15.5,17.1,2.5,6,6.9,9.5,13.4,11.3a16.81,16.81,0,0,1-7.6,1.5c-7.9,0-13.3-4.2-19-10.1-5-5.2-10.5-10.1-19.8-10.1A18.4,18.4,0,0,0,24.7,53c5.1.8,12.6,3.9,12.6,9.4,0,4.7-5.1,6.5-9.3,2-4.6-5-11.2-8.8-18.6-8.8-3.7,0-7.4,1.2-8.9,2.8,8.8,1,14.1,6.8,19.6,19.7,3.1,7.3,7.5,14.2,18.6,14.3,5,.1,12.2-2.4,16.4,1.7,4,3.9,2.6,9,4.5,13.1,2.3,5.2,7,7.9,16.3,8.4-7.7,6.6-26.1,2.6-32.4-4.1.8,16.8,13.8,31.8,39.6,24.8,4.5-1.2,7.7-.5,9.4,4.1,2.4,6.3,8,7.4,13.3,6.7,12.1-1.5,19.3,1,26.3,9.4,1.5-14.1-8.3-22.3-14.5-26.2-5.9-3.8-6.5-7.7-6.6-10.7,4.3,5,9.8,7.1,15.6,7.9,10,1.4,17.2,4.3,21,9.7,1.1-15.4-14.8-18.9-16.8-25.4,5,3.3,8.7,4.5,13.9,4.1,7-.5,15.4-6.1,21.7,4.8C174.4,115.63,184.8,117.43,191.8,122.13Zm-86.7-20.9H87.2V82.93h17.9ZM87.2,19.13h17.9V.83H87.2Zm17.9,146H87.2v18.3h17.9ZM233.2,108c5.8,0,9.7-3.3,9.7-10.3V82.43h-5.2V98c0,3.5-1.7,5.2-4.4,5.2s-4.4-1.8-4.4-5.3V82.43h-5.2v15.4c0,6.8,3.7,10.2,9.5,10.2Zm13-.4h5.1V92.43l10,15.2h4.5V82.43h-5.1v14.7L251,82.43h-4.8v25.2Zm23.4,0h5.2V82.43h-5.2v25.2Zm15.3.2h4.8l8.5-25.4h-5.5l-5.3,17.4-5.3-17.4h-5.7l8.5,25.4Zm14.7-.2H316v-4.7H304.8v-5.6h9.7v-4.7h-9.7v-5.4h11.1v-4.7H299.6Zm19.3,0h5.2v-8.3h3.3l4.7,8.3h6l-5.4-9.4c2.8-1.2,4.7-3.6,4.7-7.5v-.1a8,8,0,0,0-2.1-5.8q-2.4-2.4-6.9-2.4h-9.5v25.2Zm5.3-12.9v-7.6H328c2.7,0,4.2,1.3,4.2,3.8h0c0,2.3-1.4,3.8-4.1,3.8Zm23.5,13.2c4.9,0,8.5-2.9,8.5-7.6v-.1c0-3.9-2.4-5.8-6.8-7.5-3.9-1.6-4.8-2.3-4.8-3.7h0c0-1.3,1.1-2.2,2.9-2.2a9,9,0,0,1,5.4,2.3l2.9-4a11.93,11.93,0,0,0-8.1-3.1c-4.9,0-8.3,3-8.3,7.4v.1c0,4.3,2.8,6,7.2,7.8,3.6,1.4,4.3,2.2,4.3,3.4h0c0,1.5-1.2,2.5-3.2,2.5-2.5,0-4.6-1.4-6.3-2.8l-3.1,3.8a13.89,13.89,0,0,0,9.4,3.7Zm10.5-.3h5.2V82.43h-5.2Zm13.4,0h5.2V87.23h6.4v-4.8H365.3v4.8h6.3v20.4Zm20.1,0h5.2v-10l8.2-15.2h-5.8l-5,9.9-5-9.9h-5.9l8.2,15.3.1,9.9Zm31.4.4c6.7,0,11.4-5.3,11.4-12.9v-.4c0-7.5-4.7-12.8-11.4-12.8s-11.4,5.3-11.4,12.9v.4C411.7,102.83,416.3,108,423.1,108Zm0-4.8c-3.5,0-6.1-3.1-6.1-8.1v-.2c0-5,2.5-8.1,6-8.1s6,3.1,6,8.1v.2c.1,5-2.4,8.1-5.9,8.1Zm13.5,4.4h5.2v-10h9.7v-4.8h-9.7v-5.7h11v-4.8H436.5v25.3Zm26.4,0h5.2V97.33h8.3v10.3h5.2V82.43h-5.2v10.1h-8.3V82.43H463v25.2Zm22.5,0h16.4v-4.7H490.7v-5.6h9.7v-4.7h-9.7v-5.4h11.1v-4.7H485.5v25.1Zm19.3,0h15.4v-4.8H510V82.43h-5.2v25.2Zm25.6.3c4.9,0,8.5-2.9,8.5-7.6v-.1c0-3.9-2.4-5.8-6.8-7.5-3.9-1.6-4.8-2.3-4.8-3.7h0c0-1.3,1.1-2.2,2.9-2.2a9,9,0,0,1,5.4,2.3l2.9-4a12,12,0,0,0-8.2-3.1c-4.9,0-8.3,3-8.3,7.4v.1c0,4.3,2.8,6,7.2,7.8,3.6,1.4,4.3,2.2,4.3,3.4h0c0,1.5-1.2,2.5-3.3,2.5-2.5,0-4.6-1.4-6.3-2.8l-3.1,3.8A14.55,14.55,0,0,0,530.4,107.93Zm11-.3h5.2V82.43h-5.2v25.2Zm9,0h5.1V92.43l10,15.2H570V82.43h-5.1v14.7l-9.7-14.7h-4.8v25.2Zm23.4,0H579v-7.4l2.3-3,6.3,10.4h6.1l-8.8-14.5,8.5-10.7h-6.2l-8.3,10.9V82.43h-5.2l.1,25.2Zm21.5,0h5.2V82.43h-5.2v25.2Z" transform="translate(-0.5 -0.83)"/></svg>